<?xml version="1.0" standalone="no"?>
<!DOCTYPE svg PUBLIC "-//W3C//DTD SVG 20010904//EN"
 "http://www.w3.org/TR/2001/REC-SVG-20010904/DTD/svg10.dtd">
<svg version="1.0" xmlns="http://www.w3.org/2000/svg"
 width="1024.000000pt" height="1024.000000pt" viewBox="0 0 1024.000000 1024.000000"
 preserveAspectRatio="xMidYMid meet">

<g transform="translate(0.000000,1024.000000) scale(0.100000,-0.100000)"
fill="#000000" stroke="none">
<path d="M8110 8753 c-169 -29 -384 -114 -568 -224 -276 -166 -532 -385 -909
-777 -120 -125 -295 -305 -389 -402 -95 -96 -184 -190 -199 -207 -15 -18 -33
-33 -41 -33 -19 0 -635 194 -1239 390 -99 32 -259 84 -355 115 -96 31 -206 67
-245 80 -164 55 -1236 401 -1482 479 -227 71 -321 79 -410 33 -40 -21 -284
-221 -390 -321 -95 -88 -73 -123 177 -284 401 -258 502 -324 705 -456 121 -79
330 -215 465 -303 338 -221 1108 -725 1323 -867 101 -67 177 -124 177 -133 0
-8 -96 -115 -213 -236 -274 -286 -326 -341 -787 -837 -212 -228 -416 -448
-455 -488 l-70 -73 -90 21 c-49 11 -344 74 -655 141 -583 125 -675 139 -730
109 -14 -7 -86 -64 -161 -127 -177 -147 -191 -178 -112 -255 21 -21 187 -138
368 -260 832 -562 935 -633 941 -655 4 -16 -19 -57 -93 -165 -160 -232 -176
-262 -169 -301 8 -41 31 -65 74 -73 52 -11 174 65 361 224 41 34 82 61 90 60
8 -2 114 -165 236 -363 585 -958 596 -975 642 -1022 74 -76 106 -62 264 111
122 135 159 190 159 241 0 47 -24 176 -86 470 -30 143 -92 435 -136 649 l-82
389 74 66 c231 206 867 783 1199 1086 210 193 388 350 394 350 13 0 37 -35
200 -290 158 -247 372 -581 416 -650 37 -58 180 -284 729 -1155 526 -835 503
-800 543 -800 12 0 36 9 54 20 48 30 356 372 388 432 50 91 55 69 -234 1018
-88 289 -191 624 -229 745 -38 121 -162 522 -275 890 -114 369 -225 729 -248
800 -22 72 -44 146 -50 166 l-10 36 530 529 c531 530 718 730 858 915 249 331
359 667 299 919 -35 149 -134 242 -293 276 -82 17 -151 16 -261 -3z"/>
</g>
</svg>
